<?xml version="1.0" encoding="iso-8859-1"?>
<!-- Generator: Adobe Illustrator 19.0.0, SVG Export Plug-In . SVG Version: 6.00 Build 0)  -->
<svg version="1.1" id="Capa_1" xmlns="http://www.w3.org/2000/svg" xmlns:xlink="http://www.w3.org/1999/xlink" x="0px" y="0px"
	 viewBox="0 0 512 512" style="enable-background:new 0 0 512 512;" xml:space="preserve">
<path style="fill:#FDBF00;" d="M256,512C115.39,512,0,396.61,0,256C0,141.566,71.459,45.103,180.502,14.238L230.819,0
	l-35.112,38.745C165.209,72.393,151,114.599,151,166c0,107.52,87.48,195,195,195c51.401,0,93.607-14.209,127.255-44.707L512,281.181
	l-14.238,50.317C466.897,440.541,370.434,512,256,512z"/>
<path style="fill:#FF9F00;" d="M346,361c-32.444,0-63.058-7.976-90-22.054V512c114.434,0,210.897-71.459,241.762-180.502
	L512,281.181l-38.745,35.112C439.607,346.791,397.401,361,346,361z"/>
<g>
	<rect x="331" y="241" style="fill:#C6E2E7;" width="30" height="30"/>
	<rect x="331" style="fill:#C6E2E7;" width="30" height="30"/>
</g>
<polygon style="fill:#DEECF1;" points="301,121 301,151 271,151 271,181 241,181 241,151 211,151 211,121 241,121 241,91 271,91 
	271,121 "/>
<g>
	<polygon style="fill:#C6E2E7;" points="301,121 301,151 271,151 271,181 256,181 256,91 271,91 271,121 	"/>
	<polygon style="fill:#C6E2E7;" points="512,151 512,181 482,181 482,211 452,211 452,181 422,181 422,151 452,151 452,121 482,121 
		482,151 	"/>
</g>
<g>
</g>
<g>
</g>
<g>
</g>
<g>
</g>
<g>
</g>
<g>
</g>
<g>
</g>
<g>
</g>
<g>
</g>
<g>
</g>
<g>
</g>
<g>
</g>
<g>
</g>
<g>
</g>
<g>
</g>
</svg>
