<?xml version="1.0" standalone="no"?>
<!DOCTYPE svg PUBLIC "-//W3C//DTD SVG 20010904//EN"
 "http://www.w3.org/TR/2001/REC-SVG-20010904/DTD/svg10.dtd">
<svg version="1.0" xmlns="http://www.w3.org/2000/svg"
 width="1200.000000pt" height="1803.000000pt" viewBox="0 0 1200.000000 1803.000000"
 preserveAspectRatio="xMidYMid meet">

<g transform="translate(0.000000,1803.000000) scale(0.100000,-0.100000)"
fill="#ffffff" stroke="none">
<path d="M60 16880 l0 -1150 1150 0 1150 0 0 1150 0 1150 -1150 0 -1150 0 0
-1150z m1920 0 l0 -770 -770 0 -770 0 0 770 0 770 770 0 770 0 0 -770z"/>
<path d="M700 16880 l0 -510 510 0 510 0 0 510 0 510 -510 0 -510 0 0 -510z"/>
<path d="M2620 17520 l0 -510 160 0 160 0 0 -290 0 -290 -160 0 -160 0 0 -640
0 -640 -130 0 -130 0 0 160 0 160 -190 0 -190 0 0 -160 0 -160 -130 0 -130 0
0 160 0 160 -510 0 -510 0 0 -190 0 -190 320 0 320 0 0 -130 0 -130 -320 0
-320 0 0 -160 0 -160 -130 0 -129 0 -3 158 -3 157 -187 3 -188 2 0 -190 0
-190 160 0 161 0 -3 -132 -3 -133 -158 -3 -157 -3 0 -344 0 -345 163 -1 c89
-1 233 -1 319 1 l158 2 0 -456 0 -456 -320 0 -320 0 0 -190 0 -190 348 2 347
3 3 158 3 157 129 0 130 0 0 -160 0 -160 160 0 160 0 0 -290 0 -290 -480 0
-480 0 0 -160 0 -160 -160 0 -160 0 0 -350 0 -350 320 0 320 0 0 -130 0 -130
-160 0 -160 0 0 -160 0 -160 -160 0 -160 0 0 -670 0 -670 190 0 190 0 0 640 0
640 130 0 130 0 0 -160 0 -160 350 0 350 0 0 160 0 160 160 0 160 0 0 320 0
320 290 0 290 0 0 -130 0 -130 -160 0 -160 0 0 -190 0 -190 160 0 160 0 0
-130 0 -130 -320 0 -320 0 0 -320 0 -320 -130 0 -130 0 0 160 0 160 -350 0
-350 0 0 -350 0 -350 190 0 190 0 0 160 0 160 130 0 130 0 0 -160 0 -160 510
0 510 0 0 190 0 190 -160 0 -160 0 0 130 0 130 290 0 290 0 0 -480 0 -480 160
0 160 0 0 -160 0 -160 190 0 190 0 0 320 0 320 130 0 130 0 0 -160 0 -160 320
0 320 0 0 -160 0 -160 480 0 480 0 0 -480 0 -480 163 -2 162 -3 3 -127 3 -128
-163 -2 -163 -3 -3 -162 -2 -161 -448 1 -447 2 -3 133 -3 132 321 0 320 0 0
190 0 190 -480 0 -480 0 0 480 0 480 -190 0 -190 0 0 -670 0 -670 160 0 160 0
0 -320 0 -320 165 -1 c91 0 392 0 670 0 278 0 577 0 665 0 l159 1 3 158 3 157
130 0 130 0 3 -157 3 -158 184 0 185 0 0 160 0 160 135 0 135 0 0 -160 0 -160
345 0 344 0 3 158 3 157 158 3 157 3 1 162 c1 89 2 304 2 477 l2 315 133 3
132 3 0 -161 0 -160 160 0 161 0 -3 -133 -3 -132 -157 -3 -158 -3 0 -344 0
-345 510 0 510 0 0 480 0 480 290 0 290 0 0 -135 0 -135 -160 0 -160 0 0 -185
0 -185 350 0 350 0 0 320 0 320 130 0 130 0 0 -320 0 -320 160 0 160 0 0 -160
0 -160 190 0 190 0 0 185 0 185 -160 0 -160 0 0 295 0 295 160 0 160 0 0 480
0 480 160 0 160 0 0 190 0 190 -160 0 -160 0 0 130 0 130 320 0 320 0 0 160 0
160 130 0 130 0 0 -160 0 -160 190 0 190 0 0 510 0 510 -320 0 -320 0 0 130 0
130 320 0 320 0 0 510 0 510 -160 0 -160 0 0 130 0 130 160 0 160 0 0 510 0
510 -320 0 -320 0 0 135 0 135 160 0 160 0 0 185 0 185 -350 0 -350 0 0 -160
0 -160 -130 0 -130 0 0 160 0 160 -510 0 -510 0 0 -185 0 -185 160 0 160 0 0
-455 0 -455 -130 0 -130 0 0 320 0 320 -160 0 -160 0 0 160 0 160 -190 0 -190
0 0 -160 0 -160 -130 0 -130 0 0 295 0 295 160 0 160 0 0 160 0 160 160 0 160
0 0 160 0 160 130 0 130 0 0 -160 0 -160 160 -1 c88 0 318 0 510 0 193 0 422
0 510 0 l160 1 0 160 0 160 130 0 130 0 0 -159 0 -159 178 -4 c97 -2 255 -2
350 0 l172 3 0 185 0 184 -162 1 c-90 1 -234 0 -320 -1 l-158 -2 0 136 0 136
160 0 160 0 0 185 0 185 -162 1 c-90 1 -234 1 -320 -1 l-158 -2 0 136 0 136
480 0 480 0 0 185 0 184 -157 3 -158 3 -3 133 -3 132 161 0 160 0 0 190 0 190
-507 -2 -508 -3 -3 -187 -2 -188 160 0 160 0 0 -135 0 -135 -317 1 c-175 1
-391 1 -480 0 l-163 -1 0 -185 0 -185 160 0 160 0 0 -135 0 -135 -160 0 -160
0 0 -160 0 -160 -130 0 -130 0 0 615 0 615 160 0 160 0 -2 188 -3 187 -477 3
-478 2 0 480 0 480 -350 0 -350 0 0 -160 0 -160 -160 0 -160 0 0 -350 0 -350
190 0 190 0 0 320 0 320 130 0 130 0 0 -320 0 -320 160 0 161 0 -3 -132 -3
-133 -607 -2 -608 -1 -2 161 -3 162 -322 3 -322 2 0 290 0 290 135 0 134 0 0
-160 0 -160 190 0 190 0 -2 188 -3 187 -162 3 -163 2 0 160 0 160 -160 0 -160
0 0 130 0 130 485 0 485 0 -2 188 -3 187 -482 3 -483 2 0 160 0 160 -185 0
-185 0 0 -160 0 -160 -135 0 -135 0 0 160 0 160 -160 0 -160 0 0 130 0 130
480 0 480 0 0 190 0 190 -825 0 -825 0 -1 -162 c-1 -90 -1 -234 1 -320 l2
-158 -296 0 -296 0 0 320 0 320 -350 0 -350 0 0 -160 0 -160 -320 0 -320 0 0
-480 0 -480 -130 0 -130 0 0 480 0 480 -190 0 -190 0 0 -160 0 -160 -130 0
-130 0 0 320 0 320 -190 0 -190 0 0 -510z m2240 -350 l0 -480 160 0 160 0 0
-130 0 -129 -157 -3 -158 -3 -3 -157 -3 -158 -129 0 -130 0 0 770 0 770 130 0
130 0 0 -480z m1610 -290 l0 -450 -319 0 -319 0 -4 -175 c-2 -96 -2 -254 0
-350 l4 -175 184 0 184 0 0 160 0 160 135 0 135 0 0 -160 0 -160 185 0 185 0
1 163 c1 89 1 305 0 480 l-1 317 135 0 135 0 0 -610 0 -610 -480 0 -480 0 0
-160 0 -160 -135 0 -135 0 0 160 0 160 -347 -2 -348 -3 -3 -317 -2 -317 -158
-3 -157 -3 -3 -157 -3 -157 -157 -3 -157 -3 -3 -323 -2 -323 -128 3 -127 3 -3
158 -3 157 -189 0 -190 0 0 -320 0 -320 -160 0 -160 0 0 -185 0 -185 160 0
160 0 0 -134 0 -135 -450 0 -450 0 0 135 0 134 160 0 160 0 0 185 0 185 -190
0 -190 0 0 -160 0 -160 -130 0 -130 0 0 295 0 295 160 0 160 0 0 185 0 185
-190 0 -190 0 0 -160 0 -160 -130 0 -130 0 0 160 0 160 -160 0 -160 0 0 135 0
135 160 0 160 0 0 160 0 160 130 0 130 0 0 -160 0 -160 190 0 190 0 0 190 0
190 -160 0 -160 0 0 130 0 130 160 0 160 0 0 480 0 480 130 0 130 0 0 -320 0
-320 160 0 160 0 0 -130 0 -129 -157 -3 -158 -3 -3 -187 -2 -188 320 0 320 0
0 -160 0 -160 190 0 190 0 0 160 0 160 160 0 160 0 0 190 0 190 -160 0 -160 0
0 450 0 450 130 0 130 0 0 -160 0 -160 190 0 190 0 0 160 0 160 130 0 130 0 0
-160 0 -160 190 0 190 0 0 190 0 190 -160 0 -160 0 0 130 0 130 160 0 160 0 0
160 0 160 160 0 160 0 1 163 c1 89 0 233 -1 320 l-2 157 296 0 296 0 0 -450z
m-2890 -320 l0 -130 -130 0 -130 0 0 130 0 130 130 0 130 0 0 -130z m640 0 l0
-130 -130 0 -130 0 0 130 0 130 130 0 130 0 0 -130z m-320 -640 l0 -130 -130
0 -130 0 0 130 0 130 130 0 130 0 0 -130z m3528 -642 l-3 -133 -130 0 -130 0
-3 133 -3 132 136 0 136 0 -3 -132z m-5128 -318 l0 -130 -130 0 -130 0 0 130
0 130 130 0 130 0 0 -130z m1920 0 l0 -130 -130 0 -130 0 0 130 0 130 130 0
130 0 0 -130z m1608 -2 l3 -128 -136 0 -135 0 0 130 0 131 133 -3 132 -3 3
-127z m2242 -188 l0 -320 160 0 160 0 0 -135 0 -135 -160 0 -160 0 0 -185 0
-185 350 0 350 0 0 480 0 480 320 0 320 0 0 160 0 160 130 0 130 0 0 -455 0
-455 -130 0 -130 0 0 160 0 160 -190 0 -190 0 0 -185 0 -185 160 0 160 0 0
-135 0 -135 -160 0 -160 0 0 -161 0 -161 -157 2 c-87 1 -231 2 -320 1 l-163
-1 0 -320 0 -320 -292 2 -293 3 0 130 0 130 163 3 162 2 0 185 0 185 -162 2
-163 3 -3 157 -3 157 -157 3 -157 3 0 450 0 450 158 3 157 3 0 153 c0 84 3
156 7 159 3 4 64 7 135 7 l128 0 0 -320z m-6090 -130 l0 -130 -160 0 -160 0 0
-165 0 -165 -160 0 -160 0 0 -160 0 -160 -130 0 -130 0 0 295 0 295 160 0 160
0 0 160 0 160 290 0 290 0 0 -130z m3528 -32 l3 -158 184 0 185 0 0 160 0 160
295 0 295 0 0 -320 0 -320 160 0 161 0 -3 -132 -3 -133 -450 0 -450 0 -3 158
-3 157 -157 1 c-86 1 -301 2 -477 3 l-320 1 -3 133 -3 132 161 0 160 0 0 160
0 161 133 -3 132 -3 3 -157z m1600 30 l-3 -133 -130 0 -130 0 -3 119 c-1 66 0
126 2 133 4 10 38 13 136 13 l131 0 -3 -132z m-6408 -643 l0 -135 -130 0 -130
0 0 135 0 135 130 0 130 0 0 -135z m1280 0 l0 -135 -130 0 -130 0 0 135 0 135
130 0 130 0 0 -135z m-960 -320 l0 -135 -130 0 -130 0 0 135 0 135 130 0 130
0 0 -135z m1280 0 l0 -135 -130 0 -130 0 0 135 0 135 130 0 130 0 0 -135z
m3528 -27 l3 -158 162 -1 c89 -1 232 -2 317 -3 l155 -1 3 -157 3 -158 184 0
185 0 1 163 c1 89 2 232 3 317 l1 155 293 3 292 2 0 -295 0 -295 -160 0 -160
0 0 -320 0 -321 -132 3 -133 3 -3 157 -3 158 -317 2 -317 3 -3 158 -3 157
-184 0 -184 0 -3 -157 -3 -158 -130 0 -130 0 -3 157 -3 157 -157 3 -157 3 -3
158 -3 157 -162 1 c-89 1 -232 2 -317 3 l-155 1 -3 132 -3 132 613 -2 613 -2
3 -157z m4162 27 l0 -135 -130 0 -130 0 0 135 0 135 130 0 130 0 0 -135z m640
0 l0 -135 -130 0 -130 0 0 135 0 135 130 0 130 0 0 -135z m-8970 -480 l0 -295
-130 0 -130 0 0 295 0 295 130 0 130 0 0 -295z m2560 160 l0 -135 -130 0 -130
0 0 135 0 135 130 0 130 0 0 -135z m-1600 -320 l0 -134 -290 0 -290 0 0 134 0
134 290 0 290 0 0 -134z m2560 0 l0 -136 -127 3 -128 3 -3 119 c-1 66 0 126 2
133 4 10 37 13 131 13 l125 0 0 -135z m-3840 -320 l0 -135 -130 0 -130 0 0
135 0 135 130 0 130 0 0 -135z m642 -27 l3 -163 318 -3 317 -2 0 -290 0 -290
-130 0 -130 0 0 160 0 160 -480 0 -480 0 0 130 0 129 158 3 157 3 3 163 2 162
130 0 130 0 2 -162z m2558 27 l0 -135 -130 0 -130 0 0 128 c0 71 3 132 7 135
3 4 62 7 130 7 l123 0 0 -135z m3210 0 l0 -136 -132 3 -133 3 -3 119 c-1 66 0
126 2 133 4 10 38 13 136 13 l130 0 0 -135z m-962 -482 l2 -293 -134 0 -135 0
0 287 c0 158 2 290 5 295 3 5 63 7 132 6 l127 -3 3 -292z m640 159 l3 -133
-133 3 -133 3 -3 119 c-1 66 0 126 2 133 4 11 34 13 133 11 l128 -3 3 -133z
m640 -184 l2 -318 158 -1 c86 -1 229 -2 317 -3 l160 -1 3 -133 3 -132 -453 2
-453 3 -3 157 -3 157 -157 3 -157 3 0 130 0 130 158 3 157 3 0 153 c0 84 3
156 7 160 4 3 63 5 132 4 l126 -3 3 -317z m2562 2 l0 -320 163 -1 c89 -1 233
-1 320 1 l157 2 0 -136 0 -136 -450 0 -450 0 0 455 0 455 130 0 130 0 0 -320z
m-6410 180 l0 -130 -320 0 -320 0 0 -160 0 -160 -290 0 -290 0 0 130 0 130
160 0 160 0 0 160 0 160 450 0 450 0 0 -130z m960 -160 l0 -290 -160 0 -160 0
0 -160 0 -160 -160 0 -160 0 2 -347 3 -348 158 -3 157 -3 0 -129 0 -130 -480
0 -480 0 0 -190 0 -190 480 0 479 0 3 -157 3 -158 483 -3 482 -2 0 -160 0
-160 185 0 185 0 0 160 0 160 135 0 135 0 0 -320 0 -320 320 0 320 0 0 -160 0
-160 160 0 160 0 0 -130 0 -130 -160 0 -160 0 0 -160 0 -160 -136 0 -136 0 2
158 c2 86 2 230 1 320 l-1 162 -320 0 -320 0 0 160 0 160 -345 0 -345 0 0
-190 0 -190 320 0 320 0 0 -160 0 -160 160 0 160 0 0 -130 0 -130 -480 0 -480
0 0 -160 0 -160 -135 0 -135 0 0 160 0 160 -480 0 -480 0 0 130 0 130 160 0
160 0 0 190 0 190 -160 0 -160 0 0 480 0 480 -190 0 -190 0 0 -320 0 -320
-160 0 -160 0 0 -160 0 -160 -290 0 -290 0 0 130 0 130 160 0 160 0 0 160 0
160 160 0 160 0 0 190 0 190 -160 0 -160 0 0 320 0 320 -320 0 -320 0 0 130 0
130 160 0 160 0 0 160 0 160 130 0 130 0 0 -160 0 -160 510 0 510 0 0 640 0
640 160 0 160 0 0 160 0 160 290 0 290 0 0 -290z m4170 -155 l0 -135 -130 0
-130 0 0 135 0 135 130 0 130 0 0 -135z m-3522 -2 l-3 -128 -132 -3 -133 -3 0
131 0 130 135 0 136 0 -3 -127z m640 -320 l3 -133 -160 0 -160 0 -3 -172 c-2
-95 -2 -253 0 -350 l4 -178 319 0 319 0 0 -160 0 -160 345 0 345 0 0 160 0
160 295 0 295 0 0 -290 0 -290 -480 0 -480 0 0 -190 0 -190 508 2 507 3 3 158
3 157 129 0 130 0 0 -160 0 -160 160 0 160 0 0 -450 0 -450 -320 0 -320 0 0
-190 0 -190 320 0 320 0 0 -160 0 -160 160 0 160 0 0 -290 0 -290 -130 0 -129
0 -3 158 -3 157 -157 3 -157 3 -3 157 -3 157 -187 3 -188 2 0 -190 0 -190 160
0 160 0 0 -130 0 -130 -160 0 -160 0 0 -160 0 -160 -136 0 -136 0 2 158 c2 86
2 230 1 320 l-1 162 -185 0 -185 0 0 -160 0 -160 -320 0 -320 0 0 -190 0 -190
160 0 161 0 -3 -132 -3 -133 -157 -3 -157 -3 -3 -157 -3 -157 -130 0 -130 0
-2 613 -2 612 320 0 319 0 0 160 0 160 320 0 320 0 1 163 c1 89 1 305 0 479
l-1 318 322 2 323 3 0 185 0 185 -507 3 -508 2 0 -160 0 -160 -135 0 -135 0 0
160 0 160 -160 0 -160 0 0 160 0 160 -161 0 -161 0 2 158 c1 86 2 230 1 320
l-1 162 -319 0 -320 0 0 610 0 610 167 3 c92 1 223 3 292 2 l125 0 3 -132z
m640 -190 l2 -323 160 0 160 0 0 -130 0 -130 -294 0 -295 0 0 447 c1 246 3
451 6 455 2 5 62 7 131 6 l127 -3 3 -322z m-4808 187 l0 -130 -130 0 -130 0 0
130 0 130 130 0 130 0 0 -130z m640 -160 l0 -290 -130 0 -130 0 0 290 0 290
130 0 130 0 0 -290z m-960 -160 l0 -130 -290 0 -290 0 0 130 0 130 290 0 290
0 0 -130z m1920 0 l0 -130 -130 0 -130 0 0 130 0 130 130 0 130 0 0 -130z
m1608 3 l-3 -128 -292 -3 -293 -2 0 130 0 130 295 0 296 0 -3 -127z m2242 -3
l0 -130 -135 0 -135 0 0 130 0 130 135 0 135 0 0 -130z m1600 -350 l0 -480
190 0 190 0 0 320 0 320 130 0 130 0 0 -160 0 -160 190 0 190 0 0 160 0 160
450 0 450 0 0 -450 0 -450 -450 0 -450 0 0 160 0 160 -190 0 -190 0 0 -320 0
-320 -130 0 -130 0 0 160 0 160 -350 0 -350 0 0 -160 0 -160 -130 0 -130 0 0
160 0 160 -160 0 -160 0 0 130 0 130 318 2 317 3 3 188 2 187 -320 0 -320 0 0
130 0 130 318 2 317 3 3 158 3 157 129 0 130 0 0 -480z m-8330 -130 l0 -290
-130 0 -130 0 0 160 0 160 -160 0 -160 0 0 130 0 130 290 0 290 0 0 -290z
m1600 160 l0 -130 -290 0 -290 0 0 130 0 130 290 0 290 0 0 -130z m2889 -480
l0 -290 -295 0 -294 0 0 130 0 130 160 0 160 0 0 160 0 160 134 0 135 0 0
-290z m-4169 -480 l0 -130 -130 0 -130 0 0 130 0 130 130 0 130 0 0 -130z
m1280 0 l0 -130 -130 0 -130 0 0 130 0 130 130 0 130 0 0 -130z m3530 0 l0
-130 -135 0 -135 0 0 130 0 130 135 0 135 0 0 -130z m-2890 -320 l0 -130 -130
0 -130 0 0 130 0 130 130 0 130 0 0 -130z m6410 -160 l0 -290 -130 0 -130 0 0
160 0 160 -160 0 -160 0 0 130 0 130 290 0 290 0 0 -290z m1280 160 l0 -130
-290 0 -290 0 0 130 0 130 290 0 290 0 0 -130z m-640 -320 l0 -130 -130 0
-130 0 0 130 0 130 130 0 130 0 0 -130z m-960 -320 l0 -130 -130 0 -130 0 0
130 0 130 130 0 130 0 0 -130z m640 0 l0 -130 -130 0 -130 0 0 130 0 130 130
0 130 0 0 -130z m1280 0 l0 -130 -450 0 -450 0 0 130 0 130 450 0 450 0 0
-130z m-7370 -320 l0 -130 -130 0 -130 0 0 130 0 130 130 0 130 0 0 -130z
m6410 -640 l0 -450 -450 0 -450 0 0 450 0 450 450 0 450 0 0 -450z m-4483
-642 l2 -448 -135 0 -134 0 0 450 0 451 133 -3 132 -3 2 -447z m2881 -320 l-3
-133 -287 -2 -288 -2 0 135 0 134 290 0 291 0 -3 -132z m962 -3 l0 -135 -130
0 -130 0 0 135 0 135 130 0 130 0 0 -135z m640 0 l0 -135 -130 0 -130 0 0 135
0 135 130 0 130 0 0 -135z m-4165 -640 l0 -130 -130 0 -130 0 -3 119 c-1 66 0
126 2 133 4 11 34 13 133 11 l128 -3 0 -130z m2245 0 l0 -135 -130 0 -130 0 0
135 0 135 130 0 130 0 0 -135z"/>
<path d="M3267 14503 c-4 -3 -7 -161 -7 -350 l0 -343 190 0 190 0 0 350 0 350
-183 0 c-101 0 -187 -3 -190 -7z"/>
<path d="M4540 9510 l0 -190 350 0 350 0 0 190 0 190 -350 0 -350 0 0 -190z"/>
<path d="M4867 9053 c-4 -3 -7 -89 -7 -190 l0 -183 190 0 190 0 0 190 0 190
-183 0 c-101 0 -187 -3 -190 -7z"/>
<path d="M10630 10790 l0 -190 190 0 190 0 0 190 0 190 -190 0 -190 0 0 -190z"/>
<path d="M9670 8230 l0 -190 190 0 190 0 0 190 0 190 -190 0 -190 0 0 -190z"/>
<path d="M7750 17840 l0 -190 188 2 187 3 3 188 2 187 -190 0 -190 0 0 -190z"/>
<path d="M8390 17680 l0 -350 320 0 320 0 0 -160 0 -160 190 0 190 0 0 510 0
510 -190 0 -190 0 0 -160 0 -160 -130 0 -130 0 0 160 0 160 -190 0 -190 0 0
-350z"/>
<path d="M9670 16880 l0 -1150 1150 0 1150 0 0 1150 0 1150 -1150 0 -1150 0 0
-1150z m1920 0 l0 -770 -770 0 -770 0 0 770 0 770 770 0 770 0 0 -770z"/>
<path d="M10310 16880 l0 -510 510 0 510 0 0 510 0 510 -510 0 -510 0 0 -510z"/>
<path d="M60 7270 l0 -1150 158 0 c234 -1 1792 -1 1980 -1 l162 1 0 1150 0
1150 -1150 0 -1150 0 0 -1150z m1920 -4 l0 -774 -770 0 -770 0 0 774 0 774
770 0 770 0 0 -774z"/>
<path d="M700 7270 l0 -510 510 0 510 0 0 510 0 510 -510 0 -510 0 0 -510z"/>
<path d="M11277 8413 c-4 -3 -7 -147 -7 -319 l0 -313 -157 -3 -158 -3 -3 -507
-2 -508 190 0 190 0 0 320 0 320 160 0 160 0 0 320 0 320 160 0 160 0 0 190 0
190 -343 0 c-189 0 -347 -3 -350 -7z"/>
<path d="M2620 7270 l0 -510 160 0 160 0 0 -320 0 -320 190 0 190 0 0 350 0
350 -160 0 -160 0 0 130 0 130 160 0 160 0 0 350 0 350 -350 0 -350 0 0 -510z"/>
<path d="M11590 6809 l0 -321 -157 2 c-87 2 -231 2 -320 1 l-163 -1 0 -185 0
-185 510 0 510 0 0 505 0 505 -190 0 -190 0 0 -321z"/>
<path d="M1101 5218 c-4 -13 -52 -186 -107 -385 l-98 -363 -363 0 -363 0 0
-225 0 -225 300 0 c165 0 300 -3 300 -7 0 -5 -36 -134 -79 -288 l-78 -280
-222 -3 -221 -2 0 -225 0 -225 159 -2 159 -3 -104 -375 c-57 -206 -103 -378
-104 -382 0 -5 110 -8 245 -8 l244 0 11 43 c34 126 182 667 191 695 l11 32
299 0 c164 0 299 -3 299 -7 -1 -5 -47 -177 -104 -383 l-102 -375 240 -3 c132
-1 243 1 247 5 3 5 53 178 109 386 l103 377 359 0 358 0 0 225 0 225 -296 0
-296 0 7 28 c3 16 39 145 79 288 l73 259 216 3 217 2 0 225 0 225 -156 0
c-151 0 -155 1 -149 20 3 11 49 176 101 367 52 192 97 356 100 366 5 16 -11
17 -240 17 -224 0 -245 -1 -250 -17 -3 -10 -48 -175 -101 -368 -53 -192 -98
-358 -101 -367 -5 -17 -28 -18 -305 -18 -164 0 -299 4 -299 8 0 4 45 172 100
372 55 200 100 370 100 377 0 10 -52 13 -240 13 -240 0 -241 0 -249 -22z m685
-1488 l-81 -290 -301 0 -302 0 23 83 c12 45 49 175 80 290 l58 207 302 0 302
0 -81 -290z"/>
<path d="M2950 4890 l0 -350 440 0 440 0 0 -1160 0 -1160 380 0 380 0 0 1160
0 1160 440 0 440 0 0 350 0 350 -1260 0 -1260 0 0 -350z"/>
<path d="M6360 4473 c-554 -59 -953 -422 -1045 -950 -8 -47 -15 -145 -15 -218
0 -213 38 -378 125 -549 118 -231 313 -413 553 -516 183 -78 341 -105 575 -97
137 4 180 9 279 35 446 116 765 459 843 906 19 113 19 328 0 439 -91 520 -484
885 -1020 947 -86 9 -221 11 -295 3z m303 -663 c227 -70 364 -334 315 -608
-46 -260 -229 -421 -478 -422 -140 0 -256 47 -348 140 -97 98 -142 222 -142
390 0 165 45 285 145 386 130 131 317 173 508 114z"/>
<path d="M10986 4469 c-194 -28 -351 -103 -477 -229 -70 -68 -94 -101 -128
-170 -68 -140 -88 -301 -56 -453 51 -244 224 -399 590 -532 335 -121 395 -161
395 -262 0 -149 -213 -191 -410 -80 -30 17 -95 71 -143 119 -78 79 -90 87
-106 76 -44 -32 -421 -383 -421 -392 0 -20 163 -167 247 -222 177 -118 356
-173 591 -181 173 -6 263 4 389 47 116 39 216 101 303 189 126 128 188 274
197 466 9 203 -38 336 -167 466 -114 116 -234 178 -575 298 -119 42 -205 90
-232 131 -58 84 -1 178 116 194 109 14 218 -34 341 -151 l86 -81 179 160 c99
88 200 178 224 200 l43 40 -63 65 c-222 225 -600 349 -923 302z"/>
<path d="M7930 3765 c0 -379 4 -664 11 -722 17 -152 52 -275 114 -398 123
-246 313 -394 603 -472 90 -25 112 -27 317 -27 195 -1 230 2 307 21 307 78
511 235 637 489 45 93 65 150 93 276 20 88 21 128 25 776 l4 682 -345 0 -346
0 0 -633 c0 -414 -4 -654 -11 -692 -21 -117 -85 -207 -177 -252 -53 -26 -66
-28 -177 -28 -111 0 -124 2 -177 28 -70 34 -130 100 -160 176 l-23 56 -3 673
-3 672 -344 0 -345 0 0 -625z"/>
<path d="M4740 1931 c-48 -15 -87 -40 -120 -77 -44 -51 -60 -93 -60 -159 0
-97 45 -173 129 -219 206 -111 436 116 330 325 -50 100 -180 160 -279 130z"/>
<path d="M9992 1926 c-94 -31 -159 -112 -169 -210 -14 -139 100 -267 240 -268
72 0 130 26 180 82 86 95 90 214 11 317 -56 74 -171 109 -262 79z"/>
<path d="M11448 1580 l-3 -330 -45 30 c-76 51 -169 74 -295 74 -126 0 -192
-16 -298 -72 -364 -190 -435 -783 -132 -1088 124 -124 278 -181 465 -171 111
6 174 23 253 71 l57 35 0 -30 0 -29 195 0 195 0 0 920 0 920 -195 0 -195 0 -2
-330z m-136 -619 c25 -12 67 -40 92 -62 l46 -41 0 -168 0 -167 -44 -41 c-68
-62 -119 -85 -209 -90 -98 -6 -155 10 -211 59 -66 59 -91 123 -91 239 0 78 4
104 23 145 35 77 84 121 162 146 48 16 182 5 232 -20z"/>
<path d="M5968 1825 c-177 -34 -332 -111 -455 -229 -192 -182 -284 -398 -284
-666 0 -163 26 -280 94 -415 69 -139 204 -287 334 -364 308 -183 728 -171
1021 28 72 48 206 181 195 192 -5 4 -82 64 -173 133 l-164 125 -56 -57 c-120
-123 -278 -167 -449 -127 -168 40 -298 174 -340 350 -29 120 -10 278 46 389
114 225 408 312 637 188 28 -15 75 -53 106 -84 l56 -57 172 131 171 132 -43
50 c-99 115 -282 225 -446 267 -111 28 -313 35 -422 14z"/>
<path d="M336 992 c-159 -438 -300 -825 -313 -859 l-23 -63 233 0 233 0 69
200 68 200 308 0 307 0 68 -200 69 -200 233 0 c129 0 232 4 230 9 -1 4 -142
391 -312 860 l-309 851 -286 0 -286 0 -289 -798z m662 110 c45 -130 82 -243
82 -249 0 -10 -41 -13 -171 -13 -160 0 -170 1 -167 18 5 31 163 482 168 482 3
0 42 -107 88 -238z"/>
<path d="M3647 1613 c-4 -3 -7 -73 -7 -155 l0 -148 -115 0 -115 0 0 -175 0
-175 114 0 113 0 6 -257 c3 -142 10 -283 17 -313 38 -174 151 -292 316 -331
67 -16 247 -15 314 1 96 22 90 9 90 197 l0 165 -22 -7 c-13 -3 -66 -9 -118
-11 -79 -4 -101 -2 -130 13 -64 33 -70 59 -70 316 l0 227 170 0 170 0 0 175 0
175 -170 0 -170 0 0 155 0 155 -193 0 c-107 0 -197 -3 -200 -7z"/>
<path d="M2680 1346 c-70 -16 -118 -37 -175 -76 l-45 -31 0 36 0 35 -195 0
-195 0 0 -620 0 -620 195 0 195 0 0 380 c0 310 3 386 14 408 21 40 86 99 128
117 80 33 193 8 235 -51 39 -55 43 -95 43 -481 l0 -373 195 0 195 0 0 413 c0
460 -5 501 -65 623 -94 193 -306 289 -525 240z"/>
<path d="M7533 1350 c-223 -33 -406 -163 -497 -353 -49 -103 -62 -149 -72
-257 -12 -140 25 -293 102 -417 218 -351 776 -408 1075 -110 119 119 179 261
187 444 6 138 -13 231 -70 346 -47 94 -159 215 -242 260 -144 79 -319 111
-483 87z m242 -388 c187 -96 208 -401 36 -524 -55 -39 -105 -51 -186 -46 -56
4 -84 11 -119 32 -85 50 -136 150 -136 266 0 140 67 241 187 286 53 20 167 13
218 -14z"/>
<path d="M4607 1303 c-4 -3 -7 -282 -7 -620 l0 -613 200 0 200 0 0 620 0 620
-193 0 c-107 0 -197 -3 -200 -7z"/>
<path d="M8380 1302 c0 -8 372 -1097 406 -1189 l16 -43 256 0 257 0 210 611
c116 336 212 615 213 620 2 5 -87 9 -206 9 l-209 0 -127 -372 c-70 -205 -130
-376 -134 -380 -4 -4 -66 162 -138 370 l-130 377 -207 3 c-114 1 -207 -1 -207
-6z"/>
<path d="M9870 690 l0 -620 195 0 195 0 0 620 0 620 -195 0 -195 0 0 -620z"/>
</g>
</svg>
